<svg id="Layer_1" data-name="Layer 1" xmlns="http://www.w3.org/2000/svg" viewBox="0 0 235.27 379.97"><defs><style>.cls-1{fill:#f8d56b;}.cls-2{fill:#415763;}.cls-3{fill:#fff;}</style></defs><rect class="cls-1" x="601.52" y="459.43" width="232.14" height="378.05" transform="matrix(1, 0.01, -0.01, 1, -594.54, -464.41)"/><rect class="cls-2" x="609.04" y="522.11" width="218" height="144.81" transform="translate(-482.38 849.12) rotate(-89.52)"/><rect class="cls-1" x="597.29" y="587.75" width="241.5" height="13.54" transform="translate(-482.38 849.12) rotate(-89.52)"/><rect class="cls-1" x="711.63" y="468.4" width="13.54" height="165.44" transform="translate(-438.62 806.45) rotate(-89.52)"/><rect class="cls-1" x="710.91" y="555.2" width="13.54" height="165.44" transform="translate(-526.13 891.8) rotate(-89.52)"/><rect class="cls-2" x="686.14" y="708.64" width="60.69" height="144.81" transform="translate(-670.43 1032.55) rotate(-89.52)"/><rect class="cls-1" x="679.58" y="774.27" width="73.83" height="13.54" transform="translate(-670.43 1032.55) rotate(-89.52)"/><path class="cls-2" d="M619.71,724.41h0a7.58,7.58,0,0,1-7.51-7.63l.38-45a7.57,7.57,0,0,1,7.62-7.51h0a7.56,7.56,0,0,1,7.51,7.62l-.38,45A7.57,7.57,0,0,1,619.71,724.41Z" transform="translate(-599.96 -458.47)"/><path class="cls-3" d="M627.71,671.91a7.57,7.57,0,1,0-7.63,7.51A7.56,7.56,0,0,0,627.71,671.91Z" transform="translate(-599.96 -458.47)"/></svg>