<svg xmlns="http://www.w3.org/2000/svg" viewBox="0 0 2426.29 1323.34"><defs><style>.cls-1{isolation:isolate;}.cls-2{fill:#999;}.cls-3{fill:#7d7d7d;}.cls-4{fill:#d9d9d9;}.cls-5{fill:#545454;}.cls-6{fill:#fdb62c;}.cls-7{fill:#dbdbdb;mix-blend-mode:multiply;}</style></defs><g class="cls-1"><g id="Layer_1" data-name="Layer 1"><path class="cls-2" d="M1549.84,432.73V1567.27c0,71-75.51,116.51-138.3,83.37L337.12,1083.37c-67-35.38-67-131.36,0-166.74L1411.54,349.36C1474.33,316.22,1549.84,361.74,1549.84,432.73Z" transform="translate(-286.86 -338.33)"/><path class="cls-3" d="M1424.52,933.2h117a89.74,89.74,0,0,1,89.74,89.74v43.85a0,0,0,0,1,0,0H1334.78a0,0,0,0,1,0,0v-43.85A89.74,89.74,0,0,1,1424.52,933.2Z" transform="translate(196.18 2144.71) rotate(-90)"/><path class="cls-4" d="M1904.55,962.12v75.76H1512.31a37.88,37.88,0,0,1-37.88-37.88h0a37.88,37.88,0,0,1,37.88-37.88Z" transform="translate(-286.86 -338.33)"/><path class="cls-5" d="M2713.14,962.8v81.46a71.69,71.69,0,0,1-71.68,71.69h-61.91c-213.76,43.48-452.07,42.69-713.61,0h-71.68a52.14,52.14,0,0,1-52.14-52.14V943.25a52.14,52.14,0,0,1,52.14-52.14h71.68c240-52,477.92-53,713.61,0h61.91A71.69,71.69,0,0,1,2713.14,962.8Z" transform="translate(-286.86 -338.33)"/><path class="cls-6" d="M2579.55,1116h4.88V891.11h-4.88c-234.08-52.62-470.36-52-708.72-1V1116.7C2130.44,1158.6,2367.13,1159.15,2579.55,1116Z" transform="translate(-286.86 -338.33)"/><path class="cls-7" d="M2579.55,1041.29h4.88V961.08h-4.88q-351.12-48.84-708.72-.35v80.83C2130.41,1070.33,2367.1,1069.5,2579.55,1041.29Z" transform="translate(-286.86 -338.33)"/></g></g></svg>