<svg id="Layer_1" data-name="Layer 1" xmlns="http://www.w3.org/2000/svg" viewBox="0 0 320.19 382.14"><defs><style>.cls-1{fill:#63b3db;}.cls-2{fill:#f8d56b;}.cls-3{fill:#415763;}</style></defs><path class="cls-1" d="M513.06,358.16l274.25,97.9a9.23,9.23,0,0,0,11.79-5.59h0a9.22,9.22,0,0,0-5.58-11.78l-274.26-97.9a9.23,9.23,0,0,0-11.79,5.59h0A9.22,9.22,0,0,0,513.06,358.16Z" transform="translate(-479.45 -322.24)"/><path class="cls-1" d="M485.57,435.16l146.32,52.23a9.22,9.22,0,0,0,11.78-5.59h0A9.21,9.21,0,0,0,638.09,470L491.77,417.79A9.22,9.22,0,0,0,480,423.38h0A9.22,9.22,0,0,0,485.57,435.16Z" transform="translate(-479.45 -322.24)"/><path class="cls-1" d="M497.36,429.58l27.48-77a9.21,9.21,0,0,0-5.58-11.79h0a9.23,9.23,0,0,0-11.79,5.59l-27.48,77a9.22,9.22,0,0,0,5.58,11.78h0A9.23,9.23,0,0,0,497.36,429.58Z" transform="translate(-479.45 -322.24)"/><path class="cls-1" d="M616.19,558.8l27.48-77A9.21,9.21,0,0,0,638.09,470h0a9.23,9.23,0,0,0-11.79,5.58l-27.48,77a9.23,9.23,0,0,0,5.58,11.79h0A9.23,9.23,0,0,0,616.19,558.8Z" transform="translate(-479.45 -322.24)"/><path class="cls-2" d="M567.56,422.81l155,55.33a51.79,51.79,0,0,0,66.18-31.36h0a51.77,51.77,0,0,0-31.36-66.18l-155-55.33a51.8,51.8,0,0,0-66.18,31.36h0A51.79,51.79,0,0,0,567.56,422.81Z" transform="translate(-479.45 -322.24)"/><rect class="cls-3" x="591.14" y="533.56" width="43.27" height="14.72" transform="translate(528.6 934.12) rotate(-160.36)"/><path class="cls-3" d="M555,702.68h0a29.08,29.08,0,0,0,37.17-17.61l38.18-107a29.08,29.08,0,0,0-17.61-37.17h0a29.09,29.09,0,0,0-37.17,17.62l-38.19,107A29.08,29.08,0,0,0,555,702.68Z" transform="translate(-479.45 -322.24)"/><rect class="cls-1" x="116.19" y="266.17" height="1.06"/></svg>