<svg xmlns="http://www.w3.org/2000/svg" viewBox="0 0 2465.34 1334.6"><defs><style>.cls-1{isolation:isolate;}.cls-2{fill:#3f3813;}.cls-3{fill:#767000;}.cls-4{fill:#5c5700;}.cls-5{mix-blend-mode:multiply;}.cls-6{fill:#c8c699;}.cls-7{fill:#ada500;}.cls-8{fill:#3f3726;}.cls-9{fill:#cc3c1c;}.cls-10{fill:#f9b7ae;}.cls-11{fill:#fdf2f0;}.cls-12{fill:#f1aba1;}.cls-13{fill:#f4bcb4;}.cls-14{fill:#e04831;}.cls-15{fill:#f8d7d2;}.cls-16{fill:#f7cdc7;}.cls-17{fill:#5dd5e7;}.cls-18{mix-blend-mode:screen;}.cls-19{fill:#fff;}.cls-20{fill:#f7d4cd;}.cls-21{fill:#fde1dc;}.cls-22{fill:#f8b9b0;}.cls-23{fill:#f8a89c;}.cls-24{fill:#d6371e;}.cls-25{fill:#f7e1dc;}.cls-26{fill:#f8cac4;}.cls-27{fill:#f8b4ab;}.cls-28{fill:#e6e7e8;}.cls-29{fill:#403d00;}.cls-30{fill:#2e2c00;}</style></defs><g class="cls-1"><g id="Layer_1" data-name="Layer 1"><rect class="cls-2" x="347.91" y="605.46" width="17.04" height="519.07"/><rect class="cls-2" x="422.85" y="1171.98" width="210.53" height="17.04" transform="translate(-800.21 402.02) rotate(-47.57)"/><rect class="cls-2" x="382.02" y="1064.59" width="17.04" height="154.13" transform="translate(-892.97 531.53) rotate(-59.73)"/><path class="cls-3" d="M452.9,977.33s10.26,67.78,90.18,82.16c0,0-68.78,87.89-26.75,145.21s131.84-40.12,131.84-40.12,55.41,47.77,114.64-22.93,0-179.6,0-179.6,84.07-45.86,40.12-137.57-166.86-107-166.86-107S625.24,472.91,447.55,484.37,283.23,732.76,283.23,732.76s-50.81-19.4-83.66,19.19c-33.34,39.18-8.06,89.72-8.06,89.72s-85.25,17.77-88,85.19c-2.83,69,74.65,65.76,74.65,65.76s-88,49.67-76.43,152.85c13.44,119.87,217.82,145.21,238.84-87.89,0,0,34.34,31.87,73.93-.8C450.42,1027.14,452.9,977.33,452.9,977.33Z" transform="translate(-100.66 -371.87)"/><path class="cls-4" d="M454.26,983.26a99.79,99.79,0,0,0,5.68,15.35V557.3h-5.68Z" transform="translate(-100.66 -371.87)"/><rect class="cls-4" x="394.16" y="656.35" width="5.68" height="151.26" transform="translate(-526.33 231.13) rotate(-52.62)"/><path class="cls-4" d="M333.06,1104.83l-107.45-59.56-2.75,5,108.79,60.34Q332.39,1107.75,333.06,1104.83Z" transform="translate(-100.66 -371.87)"/><polygon class="cls-4" points="111.84 751.19 108.79 746.39 174.51 704.5 147.29 559.82 152.87 558.77 180.8 707.22 111.84 751.19"/><polygon class="cls-4" points="358.3 511.92 278.48 470.1 281.12 465.06 356.69 504.67 462.17 366.44 466.69 369.89 358.3 511.92"/><path class="cls-4" d="M513.5,1200.5l137.92-145.11-4.12-3.91L510.57,1195.34Q511.91,1197.95,513.5,1200.5Z" transform="translate(-100.66 -371.87)"/><rect class="cls-4" x="614.11" y="1082.28" width="117.19" height="5.68" transform="translate(-194.42 -307.81) rotate(-5.1)"/><g class="cls-5"><path class="cls-6" d="M606.94,1004.3c-9.65,1.32-41.85,5.14-41.85,5.14l-23.28,16.79L764,1140.15c40-49.46,23.46-116.83,9.9-152.88l-80.37-21.63S616.59,1003,606.94,1004.3Z" transform="translate(-100.66 -371.87)"/></g><path class="cls-7" d="M372.89,1494.56s51.23,70.27,284.2,74c0,0-72.81,65.59,85.92,102.26,155.72,36,634.69,69,803.21-30.3,50-29.45,23.07-67.32,23.07-67.32s438.9,100.21,621.78,47.34c111.34-32.19,68.17-83.32,68.17-83.32s192.56,18.93,280-42.71Z" transform="translate(-100.66 -371.87)"/><polygon class="cls-8" points="878.68 1122.69 483.55 1122.69 483.55 611.74 506.27 611.74 506.27 1099.97 878.68 1099.97 878.68 1122.69"/><rect class="cls-8" x="494.91" y="908.99" width="383.76" height="22.72"/><rect class="cls-8" x="532.65" y="920.35" width="22.72" height="190.98"/><rect class="cls-8" x="581.53" y="920.35" width="22.72" height="190.98"/><rect class="cls-8" x="630.4" y="920.35" width="22.72" height="190.98"/><rect class="cls-8" x="679.28" y="920.35" width="22.72" height="190.98"/><rect class="cls-8" x="728.15" y="920.35" width="22.72" height="190.98"/><rect class="cls-8" x="777.03" y="920.35" width="22.72" height="190.98"/><rect class="cls-8" x="825.9" y="920.35" width="22.72" height="190.98"/><polygon class="cls-9" points="1085.04 363.93 637.25 363.93 421.98 623.13 1028.54 623.13 1085.04 363.93"/><g class="cls-5"><path class="cls-10" d="M879.31,905.51a21.35,21.35,0,1,1-42.69,0h-4.31a21.34,21.34,0,1,1-42.68,0h-4.31a21.35,21.35,0,1,1-42.69,0h-4.31a21.35,21.35,0,1,1-42.69,0h-4.3a21.35,21.35,0,1,1-42.69,0h-4.31a25.64,25.64,0,0,0,49.15,10.26,25.64,25.64,0,0,0,47,0,25.63,25.63,0,0,0,47,0,25.64,25.64,0,0,0,47,0,25.64,25.64,0,0,0,49.15-10.26Z" transform="translate(-100.66 -371.87)"/></g><g class="cls-5"><path class="cls-10" d="M1037.64,846.67a21.34,21.34,0,0,1-42.68,0h-4.31a21.35,21.35,0,0,1-42.69,0h-4.31a21.35,21.35,0,0,1-42.69,0h-4.3a21.35,21.35,0,0,1-42.69,0h-4.31a21.35,21.35,0,0,1-42.69,0h-4.3a25.64,25.64,0,0,0,49.15,10.25,25.62,25.62,0,0,0,47,0,25.63,25.63,0,0,0,47,0,25.62,25.62,0,0,0,47,0A25.64,25.64,0,0,0,1042,846.67Z" transform="translate(-100.66 -371.87)"/></g><polygon class="cls-11" points="878.67 654.36 441.15 654.36 421.98 623.13 878.67 623.13 878.67 654.36"/><rect class="cls-12" x="878.67" y="528.07" width="1420.11" height="594.65"/><rect class="cls-13" x="1649.82" y="528.07" width="648.96" height="594.65"/><polygon class="cls-14" points="2146.61 172.82 1008.13 172.82 814.75 528.07 2339.99 528.07 2146.61 172.82"/><g class="cls-5"><path class="cls-10" d="M1857.2,654.79a28.15,28.15,0,0,1-56.3,0h-5.68a28.15,28.15,0,0,1-56.3,0h-5.68a28.15,28.15,0,0,1-56.3,0h-5.68a28.15,28.15,0,0,1-56.3,0h-5.68a28.15,28.15,0,1,1-56.3,0h-5.68a33.82,33.82,0,0,0,64.82,13.52,33.8,33.8,0,0,0,62,0,33.8,33.8,0,0,0,62,0,33.8,33.8,0,0,0,62,0,33.82,33.82,0,0,0,64.82-13.52Z" transform="translate(-100.66 -371.87)"/></g><g class="cls-5"><path class="cls-10" d="M1447,754.86a28.15,28.15,0,1,1-56.29,0H1385a28.15,28.15,0,1,1-56.29,0H1323a28.15,28.15,0,1,1-56.3,0h-5.68a28.15,28.15,0,1,1-56.3,0h-5.68a28.15,28.15,0,1,1-56.3,0h-5.68a33.82,33.82,0,0,0,64.82,13.52,33.8,33.8,0,0,0,62,0,33.8,33.8,0,0,0,62,0,33.8,33.8,0,0,0,62,0,33.81,33.81,0,0,0,64.81-13.52Z" transform="translate(-100.66 -371.87)"/></g><g class="cls-5"><path class="cls-10" d="M1477.93,784.11a28.15,28.15,0,0,1-56.3,0H1416a28.15,28.15,0,0,1-56.3,0H1354a28.15,28.15,0,0,1-56.3,0H1292a28.15,28.15,0,0,1-56.3,0H1230a28.15,28.15,0,0,1-56.3,0H1168a33.82,33.82,0,0,0,64.82,13.52,33.8,33.8,0,0,0,62,0,33.8,33.8,0,0,0,62,0,33.8,33.8,0,0,0,62,0,33.82,33.82,0,0,0,64.82-13.52Z" transform="translate(-100.66 -371.87)"/></g><path class="cls-13" d="M1751,899.94l324.08-214.3,324.07,214.3C2132.25,1078.58,1940.1,994.6,1751,899.94Z" transform="translate(-100.66 -371.87)"/><rect class="cls-11" x="2102.78" y="689.63" width="120.04" height="296.55"/><rect class="cls-15" x="1649.82" y="1040.36" width="648.96" height="82.36"/><rect class="cls-16" x="878.67" y="1040.36" width="771.15" height="82.36"/><g class="cls-5"><rect class="cls-11" x="2123.85" y="961.82" width="77.9" height="7.81"/></g><g class="cls-5"><rect class="cls-11" x="2123.85" y="938.58" width="77.9" height="7.81"/></g><g class="cls-5"><rect class="cls-11" x="2123.85" y="915.34" width="77.9" height="7.81"/></g><g class="cls-5"><rect class="cls-11" x="2123.85" y="892.1" width="77.9" height="7.81"/></g><g class="cls-5"><rect class="cls-11" x="2123.85" y="868.86" width="77.9" height="7.81"/></g><g class="cls-5"><rect class="cls-11" x="2123.85" y="845.62" width="77.9" height="7.81"/></g><g class="cls-5"><rect class="cls-11" x="2123.85" y="822.38" width="77.9" height="7.81"/></g><g class="cls-5"><rect class="cls-11" x="2123.85" y="799.14" width="77.9" height="7.81"/></g><g class="cls-5"><rect class="cls-11" x="2123.85" y="775.9" width="77.9" height="7.81"/></g><g class="cls-5"><rect class="cls-11" x="2123.85" y="752.66" width="77.9" height="7.81"/></g><g class="cls-5"><rect class="cls-11" x="2123.85" y="729.41" width="77.9" height="7.81"/></g><g class="cls-5"><rect class="cls-11" x="2123.85" y="706.17" width="77.9" height="7.81"/></g><rect class="cls-11" x="1725.79" y="689.63" width="120.04" height="296.55"/><g class="cls-5"><rect class="cls-11" x="1746.86" y="961.82" width="77.9" height="7.81"/></g><g class="cls-5"><rect class="cls-11" x="1746.86" y="938.58" width="77.9" height="7.81"/></g><g class="cls-5"><rect class="cls-11" x="1746.86" y="915.34" width="77.9" height="7.81"/></g><g class="cls-5"><rect class="cls-11" x="1746.86" y="892.1" width="77.9" height="7.81"/></g><g class="cls-5"><rect class="cls-11" x="1746.86" y="868.86" width="77.9" height="7.81"/></g><g class="cls-5"><rect class="cls-11" x="1746.86" y="845.62" width="77.9" height="7.81"/></g><g class="cls-5"><rect class="cls-11" x="1746.86" y="822.38" width="77.9" height="7.81"/></g><g class="cls-5"><rect class="cls-11" x="1746.86" y="799.14" width="77.9" height="7.81"/></g><g class="cls-5"><rect class="cls-11" x="1746.86" y="775.9" width="77.9" height="7.81"/></g><g class="cls-5"><rect class="cls-11" x="1746.86" y="752.66" width="77.9" height="7.81"/></g><g class="cls-5"><rect class="cls-11" x="1746.86" y="729.41" width="77.9" height="7.81"/></g><g class="cls-5"><rect class="cls-11" x="1746.86" y="706.17" width="77.9" height="7.81"/></g><rect class="cls-17" x="1871.14" y="702.79" width="206.33" height="270.26"/><rect class="cls-17" x="1344.08" y="700.99" width="206.33" height="254.86"/><rect class="cls-17" x="1026.49" y="700.99" width="206.33" height="254.86"/><circle class="cls-17" cx="2082.18" cy="916.98" r="83.75" transform="translate(-139.21 1369.03) rotate(-45)"/><g class="cls-18"><polygon class="cls-17" points="1866.13 924.24 2087.58 702.79 1866.13 702.79 1866.13 924.24"/></g><g class="cls-18"><polygon class="cls-17" points="1336.51 924.24 1557.97 702.79 1336.51 702.79 1336.51 924.24"/></g><g class="cls-18"><polygon class="cls-17" points="1018.93 924.24 1240.39 702.79 1018.93 702.79 1018.93 924.24"/></g><g class="cls-18"><path class="cls-17" d="M2082.18,833.23a83.74,83.74,0,0,0-59.53,142.64l118.43-118.42A83.47,83.47,0,0,0,2082.18,833.23Z" transform="translate(-100.66 -371.87)"/></g><path class="cls-19" d="M2173.08,1084.22v251.1H1976.86v-251.1h196.22m22.72-22.72H1954.14v296.55H2195.8V1061.5Z" transform="translate(-100.66 -371.87)"/><rect class="cls-19" x="1962.94" y="689.63" width="22.72" height="296.55"/><rect class="cls-19" x="1854.26" y="779.31" width="240.08" height="22.72"/><rect class="cls-19" x="1854.26" y="873.77" width="240.08" height="22.72"/><path class="cls-19" d="M2082.18,1012.09A95.11,95.11,0,1,1,2177.29,917,95.21,95.21,0,0,1,2082.18,1012.09Zm0-167.49A72.38,72.38,0,1,0,2154.57,917,72.46,72.46,0,0,0,2082.18,844.6Z" transform="translate(-100.66 -371.87)"/><rect class="cls-19" x="1970.16" y="461.36" width="22.72" height="167.49"/><rect class="cls-19" x="1897.77" y="533.75" width="167.49" height="22.72"/><path class="cls-19" d="M1663.11,1339.09H1432.7V1061.5h230.41Zm-207.69-22.73h185V1084.22h-185Z" transform="translate(-100.66 -371.87)"/><rect class="cls-19" x="1435.88" y="700.99" width="22.72" height="254.86"/><rect class="cls-19" x="1344.08" y="780.26" width="206.33" height="22.72"/><rect class="cls-19" x="1344.08" y="853.86" width="206.33" height="22.72"/><path class="cls-19" d="M1345.53,1339.09H1115.12V1061.5h230.41Zm-207.69-22.73h185V1084.22h-185Z" transform="translate(-100.66 -371.87)"/><rect class="cls-19" x="1118.3" y="700.99" width="22.72" height="254.86"/><rect class="cls-19" x="1026.49" y="780.26" width="206.33" height="22.72"/><rect class="cls-19" x="1026.49" y="853.86" width="206.33" height="22.72"/><g class="cls-5"><path class="cls-10" d="M1442.62,661.47,1559.4,544.69H1398.65c-.39,13,.14,25.72,2.88,30.75C1407.22,585.86,1442.62,661.47,1442.62,661.47Z" transform="translate(-100.66 -371.87)"/></g><rect class="cls-11" x="1211.58" y="39.83" width="131.1" height="249.77"/><g class="cls-5"><path class="cls-20" d="M1312.25,439.65v43.76c41,4.09,98.21,9.85,131.1,13.17V442.75c-27.28-4-109.07-16.05-111-16.05C1330.49,426.7,1317.93,435.57,1312.25,439.65Z" transform="translate(-100.66 -371.87)"/></g><polygon class="cls-21" points="1363.72 0 1188.2 0 1193.88 92.95 1360.39 92.95 1363.72 0"/><g class="cls-5"><rect class="cls-22" x="1649.82" y="1040.36" width="648.96" height="11.58"/></g><g class="cls-5"><rect class="cls-23" x="878.68" y="1040.36" width="771.15" height="11.58"/></g><g class="cls-5"><polygon class="cls-20" points="878.67 583.83 1649.82 648.11 1649.82 539.43 878.67 543.68 878.67 583.83"/></g><polygon class="cls-11" points="1649.82 559.29 833.92 559.29 814.75 528.07 1649.82 528.07 1649.82 559.29"/><polygon class="cls-24" points="2336.47 583.83 1974.41 344.42 1612.36 583.83 1584.16 541.18 1974.41 283.12 2364.67 541.18 2336.47 583.83"/><g class="cls-5"><polygon class="cls-20" points="1649.82 610.4 1981.52 390.5 2298.49 558.72 1974.41 344.42 1649.82 559.29 1649.82 610.4"/></g><rect class="cls-25" x="2091.47" y="899.07" width="14.91" height="50.46"/><rect class="cls-25" x="2091.47" y="726.27" width="14.91" height="50.46"/><rect class="cls-25" x="1842.34" y="899.07" width="14.91" height="50.46"/><rect class="cls-25" x="1842.34" y="726.27" width="14.91" height="50.46"/><rect class="cls-26" x="1685.71" y="1073.84" width="27.55" height="10.53"/><rect class="cls-26" x="1753.53" y="1096.57" width="27.55" height="10.53"/><rect class="cls-26" x="1796.61" y="1081.34" width="27.55" height="10.53"/><rect class="cls-26" x="1866.13" y="1098.99" width="27.55" height="10.53"/><rect class="cls-26" x="2026.26" y="1079.98" width="27.55" height="10.53"/><rect class="cls-26" x="1899.22" y="1073.65" width="27.55" height="10.53"/><rect class="cls-26" x="2085.81" y="1069.45" width="27.55" height="10.53"/><rect class="cls-26" x="2123.85" y="1098.92" width="27.55" height="10.53"/><rect class="cls-26" x="2144.79" y="1083.65" width="27.55" height="10.53"/><rect class="cls-26" x="1802.99" y="618.32" width="27.55" height="10.53"/><rect class="cls-26" x="1299.91" y="642.84" width="27.55" height="10.53"/><rect class="cls-26" x="1243.53" y="137.34" width="27.55" height="10.53"/><rect class="cls-26" x="1278.35" y="163.15" width="27.55" height="10.53"/><rect class="cls-26" x="1262.73" y="187.29" width="27.55" height="10.53"/><rect class="cls-26" x="1301.83" y="236.7" width="27.55" height="10.53"/><rect class="cls-26" x="1232.43" y="256.59" width="27.55" height="10.53"/><rect class="cls-26" x="1352" y="656.51" width="27.55" height="10.53"/><rect class="cls-26" x="1277.13" y="770.63" width="27.55" height="10.53"/><rect class="cls-26" x="1584.16" y="667.04" width="27.55" height="10.53"/><rect class="cls-26" x="1141.02" y="637.57" width="27.55" height="10.53"/><rect class="cls-26" x="939.2" y="697.52" width="27.55" height="10.53"/><rect class="cls-26" x="1026.49" y="642.84" width="27.55" height="10.53"/><rect class="cls-26" x="952.97" y="788.1" width="27.55" height="10.53"/><rect class="cls-26" x="925.42" y="807.46" width="27.55" height="10.53"/><rect class="cls-26" x="1828.56" y="517.53" width="27.55" height="10.53"/><rect class="cls-26" x="1680.03" y="867.5" width="27.55" height="10.53"/><rect class="cls-26" x="1570.38" y="992.22" width="27.55" height="10.53"/><rect class="cls-26" x="1518.59" y="1010.33" width="27.55" height="10.53"/><rect class="cls-26" x="1338.22" y="995.06" width="27.55" height="10.53"/><rect class="cls-26" x="1129.8" y="1015.6" width="27.55" height="10.53"/><rect class="cls-26" x="960.86" y="990.15" width="27.55" height="10.53"/><rect class="cls-26" x="932.03" y="883.52" width="27.55" height="10.53"/><rect class="cls-26" x="2192.93" y="578.56" width="27.55" height="10.53"/><rect class="cls-26" x="2149.02" y="593.77" width="27.55" height="10.53"/><rect class="cls-26" x="2220.48" y="652.71" width="27.55" height="10.53"/><rect class="cls-26" x="2239.73" y="766.2" width="27.55" height="10.53"/><rect class="cls-26" x="1857.36" y="642.84" width="27.55" height="10.53"/><rect class="cls-26" x="2225.95" y="1005.95" width="27.55" height="10.53"/><rect class="cls-26" x="1981.52" y="995.42" width="27.55" height="10.53"/><rect class="cls-26" x="2062.85" y="655.62" width="27.55" height="10.53"/><rect class="cls-26" x="1746.86" y="588.5" width="27.55" height="10.53"/><rect class="cls-26" x="2206.7" y="1067.97" width="27.55" height="10.53"/><rect class="cls-26" x="2239.73" y="1090.51" width="27.55" height="10.53"/><rect class="cls-26" x="1958.11" y="1093.73" width="27.55" height="10.53"/><rect class="cls-27" x="902.51" y="1069.47" width="27.55" height="10.53"/><rect class="cls-27" x="970.33" y="1092.2" width="27.55" height="10.53"/><rect class="cls-27" x="1013.41" y="1076.97" width="27.55" height="10.53"/><rect class="cls-27" x="1082.93" y="1094.63" width="27.55" height="10.53"/><rect class="cls-27" x="1243.07" y="1075.61" width="27.55" height="10.53"/><rect class="cls-27" x="1116.03" y="1069.28" width="27.55" height="10.53"/><rect class="cls-27" x="1302.61" y="1065.08" width="27.55" height="10.53"/><rect class="cls-27" x="1340.65" y="1094.55" width="27.55" height="10.53"/><rect class="cls-27" x="1361.6" y="1079.28" width="27.55" height="10.53"/><rect class="cls-27" x="1423.51" y="1063.6" width="27.55" height="10.53"/><rect class="cls-27" x="1456.53" y="1086.15" width="27.55" height="10.53"/><rect class="cls-27" x="1174.92" y="1089.36" width="27.55" height="10.53"/><rect class="cls-27" x="1576.09" y="1082.48" width="27.55" height="10.53"/><rect class="cls-27" x="1635.64" y="1071.95" width="14.19" height="10.53"/><rect class="cls-27" x="1507.94" y="1096.23" width="27.55" height="10.53"/><path class="cls-3" d="M2217.68,1495.4h306.15s58-69.28,28.2-100.7-71.7,8-71.7,8,29.8-83.78-15.31-144.21-140.19-60.42-153.88,50.76c0,0-12.89-45.12-37.06-24.17s-20.95,79.76-2.42,109.57c0,0-62.84-56.4-75.73-26.59s18.53,50,18.53,50-42.7-9.67-46.73,21S2217.68,1495.4,2217.68,1495.4Z" transform="translate(-100.66 -371.87)"/><rect class="cls-4" x="2236.71" y="1366.16" width="254.64" height="5.68" transform="translate(620.29 3179.59) rotate(-83.1)"/><rect class="cls-4" x="2347.99" y="1362.56" width="115.98" height="5.68" transform="translate(-432.49 1390.32) rotate(-37.82)"/><rect class="cls-4" x="2331.19" y="1372.98" width="5.68" height="73.25" transform="translate(-483.53 1268.28) rotate(-35.98)"/><rect class="cls-4" x="2401.06" y="1439.14" width="82.4" height="5.68" transform="translate(679.36 3368.13) rotate(-84.68)"/><rect class="cls-4" x="2410.96" y="1453.93" width="116.54" height="5.68" transform="translate(-445.72 1631.79) rotate(-41.54)"/><rect class="cls-4" x="2250.53" y="1416.47" width="5.68" height="80.59" transform="translate(-421.67 328.31) rotate(-16.5)"/><rect class="cls-4" x="2243.33" y="1438.96" width="57" height="5.68" transform="translate(-292.04 2152.79) rotate(-56.13)"/><path class="cls-28" d="M2186.55,1350.74H1963.39V1069.89h223.16Zm-217.48-5.68h211.79V1075.57H1969.07Z" transform="translate(-100.66 -371.87)"/><rect class="cls-28" x="1971.57" y="700.99" width="5.68" height="275.04"/><path class="cls-28" d="M1654,1340.94H1440.09V1071.82H1654Zm-208.2-5.68h202.52V1077.5H1445.77Z" transform="translate(-100.66 -371.87)"/><rect class="cls-28" x="1443.63" y="702.85" width="5.68" height="263.32"/><path class="cls-28" d="M1337.41,1340.94H1123.52V1071.82h213.89Zm-208.21-5.68h202.53V1077.5H1129.2Z" transform="translate(-100.66 -371.87)"/><rect class="cls-28" x="1127.07" y="702.85" width="5.68" height="263.32"/><polygon class="cls-29" points="1580.8 914.21 1313.68 914.21 1319.66 970.91 1574.82 970.91 1580.8 914.21"/><polygon class="cls-30" points="1554.54 914.21 1554.54 970.91 1574.82 970.91 1580.8 914.21 1554.54 914.21"/><polygon class="cls-29" points="1263.22 914.21 996.1 914.21 1002.08 970.91 1257.23 970.91 1263.22 914.21"/><polygon class="cls-30" points="1236.96 914.21 1236.96 970.91 1257.23 970.91 1263.22 914.21 1236.96 914.21"/><g class="cls-5"><polygon class="cls-10" points="2349.33 564.39 1974.41 317.17 1599.5 564.39 1596.37 559.64 1974.41 310.36 2352.45 559.64 2349.33 564.39"/></g><path class="cls-28" d="M2082.18,1002.93a86.59,86.59,0,1,1,86.59-86.59A86.68,86.68,0,0,1,2082.18,1002.93Zm0-167.49a80.91,80.91,0,1,0,80.91,80.9A81,81,0,0,0,2082.18,835.44Z" transform="translate(-100.66 -371.87)"/><rect class="cls-28" x="1978.68" y="461.36" width="5.68" height="166.86"/><rect class="cls-2" x="243.82" y="1117.04" width="2221.52" height="11.36"/></g></g></svg>