<svg id="Layer_1" data-name="Layer 1" xmlns="http://www.w3.org/2000/svg" viewBox="0 0 751.26 569.68"><defs><style>.cls-1{fill:#63b3db;}.cls-2{fill:#415763;}.cls-3{fill:#f8d56b;}.cls-4{fill:#fff;}</style></defs><polygon class="cls-1" points="64.61 300.22 97.68 569.67 574.09 569.67 616.27 305.53 329.93 33.87 64.61 300.22"/><polygon class="cls-2" points="644.18 365.43 330.41 67.75 34.35 364.95 0 330.73 329.45 0 677.55 330.25 644.18 365.43"/><path class="cls-3" d="M954.45,307.36a76.07,76.07,0,1,1-130.26,0,125.85,125.85,0,1,0,130.26,0Z" transform="translate(-263.91 -227.03)"/><polygon class="cls-3" points="595.5 235.51 533.27 569.67 666.62 569.67 647.22 246.82 595.5 235.51"/><rect class="cls-2" x="244.57" y="291.87" width="191.74" height="191.74"/><rect class="cls-4" x="257.71" y="305.01" width="165.47" height="165.47"/><rect class="cls-2" x="332.88" y="300.56" width="15.12" height="174.36"/><rect class="cls-2" x="596.8" y="527.59" width="15.12" height="174.36" transform="translate(955.22 -216.62) rotate(90)"/><path class="cls-2" d="M416.21,437.89c-1.82,0-35.77-55.76-35.77-55.76l67.28-44.85,21.22,50.3Z" transform="translate(-263.91 -227.03)"/><polygon class="cls-1" points="63.17 125.19 99.91 184.39 205.02 96.13 171.26 36.09 63.17 125.19"/></svg>